<svg width="37" height="23" viewBox="0 0 37 23" fill="none" xmlns="http://www.w3.org/2000/svg">
<g clip-path="url(#clip0_180_98)">
<g clip-path="url(#clip1_180_98)">
<g clip-path="url(#clip2_180_98)">
<path d="M0 0.0300293H37V1.03003H0V0.0300293ZM0 21.03H37V22.03H0V21.03Z" fill="white"/>
<path d="M0 0.0300293H1V22.03H0V0.0300293ZM36 0.0300293H37V22.03H36V0.0300293ZM18 0.0300293H19V13.03H18V0.0300293Z" fill="white"/>
<path d="M0 12.03H19V13.03H0V12.03ZM7.4 0.22998V4.42998H0.1V5.22998H8.2V0.22998H7.4Z" fill="white"/>
<path d="M8.3 5.23003H0V4.23003H7.3V0.0300293H8.4V5.23003H8.3ZM0.2 5.03003H8.1V0.330029H7.5V4.53003H0.2V5.03003ZM10.3 0.230029V5.23003H18.8V4.33003H11.2V0.230029H10.3Z" fill="white"/>
<path d="M18.8998 5.23003H10.1998V0.0300293H11.2998V4.23003H18.8998V5.23003ZM10.4998 5.03003H18.6998V4.43003H10.9998V0.330029H10.3998V5.03003H10.4998ZM0.299805 7.33003V8.13003H7.3998V12.73H8.1998V7.33003H0.299805Z" fill="white"/>
<path d="M8.3002 12.93H7.3002V8.32998H0.200195V7.22998H8.4002L8.3002 12.93ZM7.6002 12.63H8.1002V7.52998H0.400195V8.02998H7.5002L7.6002 12.63ZM10.3002 7.32998V12.73H11.1002V8.12998H18.6002V7.32998H10.3002Z" fill="white"/>
<path d="M11.2001 12.9299H10.2001V7.22993H18.8001V8.32993H11.3001L11.2001 12.9299ZM10.5001 12.6299H11.0001V8.02993H18.5001V7.52993H10.4001V12.6299H10.5001ZM0.600098 1.42993L0.100098 2.12993L4.2001 5.02993L4.7001 4.32993L0.600098 1.42993Z" fill="white"/>
<path d="M4.1999 5.22998L-0.100098 2.22998L0.499902 1.32998L0.599902 1.42998L4.7999 4.32998L4.1999 5.22998ZM0.299902 2.12998L4.1999 4.82998L4.4999 4.32998L0.599902 1.62998L0.299902 2.12998ZM3.1999 0.22998L2.6999 0.82998L7.2999 4.32998L7.7999 3.62998L3.1999 0.22998Z" fill="white"/>
<path d="M7.4001 4.53003L2.6001 0.830029L3.2001 0.0300293L8.0001 3.73003L7.4001 4.53003ZM2.9001 0.830029L7.3001 4.23003L7.6001 3.73003L3.2001 0.330029L2.9001 0.830029ZM18.2001 1.33003L14.0001 4.33003L14.4001 5.03003L18.6001 2.03003L18.2001 1.33003Z" fill="white"/>
<path d="M14.4002 5.23013L13.8002 4.33013L13.9002 4.23013L18.2002 1.13013L18.8002 2.03013L14.4002 5.23013ZM14.1002 4.33013L14.4002 4.83013L18.4002 2.03013L18.1002 1.53013L14.1002 4.33013ZM15.7002 0.130127L10.7002 3.83013L11.2002 4.53013L16.2002 0.830127L15.7002 0.130127Z" fill="white"/>
<path d="M11.1001 4.62993L10.5001 3.72993L15.7001 -0.0700684L16.3001 0.829932L11.1001 4.62993ZM10.8001 3.82993L11.1001 4.32993L16.0001 0.729932L15.7001 0.229932L10.8001 3.82993ZM4.1001 7.42993L0.100098 10.2299L0.600098 10.9299L4.6001 8.12993L4.1001 7.42993Z" fill="white"/>
<path d="M0.6 11.13L0 10.23L4.2 7.22998L4.8 8.12998L4.6 8.22998L0.6 11.13ZM0.3 10.33L0.6 10.83L4.4 8.12998L4 7.62998L0.3 10.33ZM7.4 8.02998L2 12.03L2.5 12.73L7.9 8.72998L7.4 8.02998Z" fill="white"/>
<path d="M2.3998 12.9299L1.7998 12.0299L7.39981 7.82993L7.9998 8.72993L7.89981 8.82993L2.3998 12.9299ZM2.0998 12.1299L2.3998 12.6299L7.5998 8.72993L7.2998 8.22993L2.0998 12.1299ZM14.1998 7.42993L13.6998 8.12993L18.2998 11.3299L18.7998 10.6299L14.1998 7.42993Z" fill="white"/>
<path d="M18.3001 11.53L18.2001 11.43L13.5001 8.12998L14.1001 7.22998L14.2001 7.32998L18.9001 10.63L18.3001 11.53ZM13.9001 8.02998L18.3001 11.13L18.6001 10.63L14.2001 7.52998L13.9001 8.02998ZM11.1001 8.02998L10.6001 8.72998L15.8001 12.73L16.3001 12.03L11.1001 8.02998Z" fill="white"/>
<path d="M15.9 12.8301L10.5 8.73013L11.2 7.83013L11.3 7.93013L16.6 12.0301L15.9 12.8301ZM10.8 8.63013L15.8 12.4301L16.1 11.9301L11.1 8.13013L10.8 8.63013ZM10.7 20.1301L9.3 18.7301L7.8 20.1301L8 18.1301L6 17.8301L7.7 16.8301L6.7 15.1301L8.6 15.8301L9.3 13.9301L9.9 15.8301L11.8 15.2301L10.7 16.9301L12.4 18.0301L10.4 18.2301L10.7 20.1301ZM24 11.1301L23.3 10.4301L22.6 11.1301L22.7 10.1301L21.7 10.0301L22.5 9.53013L22 8.73013L23 8.93013L23.4 8.03013L23.7 8.93013L24.6 8.63013L24.1 9.43013L24.9 9.93013L23.9 10.0301L24 11.1301ZM29.5 5.03013L28.9 4.43013L28.2 5.03013L28.3 4.13013L27.4 4.03013L28.2 3.53013L27.7 2.73013L28.5 3.03013L28.8 2.13013L29.1 3.03013L30 2.73013L29.5 3.53013L30.3 4.03013L29.4 4.13013L29.5 5.03013ZM29.5 19.7301L28.9 19.0301L28.2 19.7301L28.3 18.7301L27.3 18.6301L28.1 18.1301L27.6 17.3301L28.5 17.6301L28.8 16.7301L29.1 17.6301L30 17.3301L29.5 18.1301L30.3 18.6301L29.3 18.7301L29.5 19.7301ZM31.6 12.7301L31 12.3301L30.4 12.7301L30.6 12.1301L30 11.7301H30.7L31 11.0301L31.2 11.6301H32L31.4 12.0301L31.6 12.7301ZM34.4 9.53013L33.8 8.93013L33.1 9.53013L33.2 8.63013L32.3 8.53013L33 8.03013L32.5 7.23013L33.4 7.53013L33.7 6.63013L34 7.53013L34.9 7.23013L34.4 8.03013L35.2 8.53013L34.3 8.63013L34.4 9.53013Z" fill="white"/>
</g>
</g>
</g>
<defs>
<clipPath id="clip0_180_98">
<rect width="37" height="22" fill="white" transform="translate(0 0.0300293)"/>
</clipPath>
<clipPath id="clip1_180_98">
<rect width="37" height="22" fill="white" transform="translate(0 0.0300293)"/>
</clipPath>
<clipPath id="clip2_180_98">
<rect width="37" height="22" fill="white" transform="translate(0 0.0300293)"/>
</clipPath>
</defs>
</svg>
