<svg width="37" height="23" viewBox="0 0 37 23" fill="none" xmlns="http://www.w3.org/2000/svg">
<g clip-path="url(#clip0_180_73)">
<g clip-path="url(#clip1_180_73)">
<g clip-path="url(#clip2_180_73)">
<path fill-rule="evenodd" clip-rule="evenodd" d="M27.1 0.0300293H37V22.03H27.1V0.0300293ZM0 0.0300293H9.9V22.03H0V0.0300293ZM18.8 19.13C18.7 17.73 18.7 16.83 18.6 15.93C18.6 15.53 18.9 15.63 19.2 15.63C21.2 15.93 22.2 16.13 22.2 16.13C21.2 14.13 23.8 13.23 25.1 12.03C24.1 11.63 24.2 11.83 24.9 9.33003C22.7 10.03 22.9 9.83003 22.4 8.73003C22.4 8.73003 22.2 8.93003 20.9 10.43C20.7 10.63 20.4 10.53 20.4 10.13C21.1 6.63003 21.1 6.43003 21.1 6.43003C19.7 7.23003 19.8 7.33003 19.5 6.93003C18.7 5.43003 18.4 4.73003 18.4 4.73003C18.4 4.73003 18 5.43003 17.3 6.93003C17.1 7.33003 17.1 7.33003 15.7 6.43003C15.7 6.43003 15.7 6.53003 16.4 10.13C16.5 10.43 16.1 10.63 15.9 10.43C14.5 8.93003 14.4 8.73003 14.4 8.73003C13.9 9.83003 14.1 10.03 11.9 9.33003C12.6 11.83 12.7 11.73 11.7 12.03C13.1 13.13 15.7 14.13 14.6 16.13C14.6 16.13 15.6 16.03 17.6 15.63C17.8 15.63 18.2 15.53 18.2 15.93C18.2 16.83 18.1 17.73 18 19.13H18.8Z" fill="white"/>
<path d="M0 0.0300293H37V1.03003H0V0.0300293ZM0 21.03H37V22.03H0V21.03Z" fill="white"/>
</g>
</g>
</g>
<defs>
<clipPath id="clip0_180_73">
<rect width="37" height="22" fill="white" transform="translate(0 0.0300293)"/>
</clipPath>
<clipPath id="clip1_180_73">
<rect width="37" height="22" fill="white" transform="translate(0 0.0300293)"/>
</clipPath>
<clipPath id="clip2_180_73">
<rect width="37" height="22" fill="white" transform="translate(0 0.0300293)"/>
</clipPath>
</defs>
</svg>
