<svg width="37" height="23" viewBox="0 0 37 23" fill="none" xmlns="http://www.w3.org/2000/svg">
<g clip-path="url(#clip0_180_123)">
<g clip-path="url(#clip1_180_123)">
<g clip-path="url(#clip2_180_123)">
<path d="M7.5001 7.63008L9.7001 6.03008H7.0001L6.2001 3.53008L5.3001 6.03008H2.6001L4.8001 7.63008L4.0001 10.2301L6.2001 8.63008L8.3001 10.2301L7.5001 7.63008ZM12.7001 3.83008L13.6001 3.63008L12.7001 3.23008L12.8001 2.33008L12.2001 3.03008L11.4001 2.73008L11.9001 3.43008L11.3001 4.13008L12.1001 3.93008L12.6001 4.73008L12.7001 3.83008ZM15.0001 6.43008L15.9001 6.53008L15.3001 5.93008L15.7001 5.13008L14.9001 5.53008L14.3001 4.83008L14.4001 5.73008L13.6001 6.13008L14.5001 6.33008L14.6001 7.13008L15.0001 6.43008ZM15.3001 9.83008L16.0001 9.23008H15.1001L14.8001 8.43008L14.5001 9.33008H13.6001L14.4001 9.83008L14.1001 10.7301L14.8001 10.1301L15.6001 10.6301L15.3001 9.83008ZM12.7001 12.4301L13.6001 12.2301L12.7001 11.8301L12.8001 10.9301L12.2001 11.6301L11.4001 11.3301L11.9001 12.1301L11.3001 12.8301L12.2001 12.5301L12.7001 13.3301V12.4301Z" fill="white"/>
<path d="M0 0.0300293V22.03H37V0.0300293H0ZM36 21.03H1V1.03003H36V21.03Z" fill="white"/>
</g>
</g>
</g>
<defs>
<clipPath id="clip0_180_123">
<rect width="37" height="22" fill="white" transform="translate(0 0.0300293)"/>
</clipPath>
<clipPath id="clip1_180_123">
<rect width="37" height="22" fill="white" transform="translate(0 0.0300293)"/>
</clipPath>
<clipPath id="clip2_180_123">
<rect width="37" height="22" fill="white" transform="translate(0 0.0300293)"/>
</clipPath>
</defs>
</svg>
