<svg width="37" height="23" viewBox="0 0 37 23" fill="none" xmlns="http://www.w3.org/2000/svg">
<g clip-path="url(#clip0_180_153)">
<g clip-path="url(#clip1_180_153)">
<g clip-path="url(#clip2_180_153)">
<mask id="mask0_180_153" style="mask-type:luminance" maskUnits="userSpaceOnUse" x="0" y="0" width="37" height="23">
<path d="M0 0.0300293H37V22.03H0V0.0300293Z" fill="white"/>
</mask>
<g mask="url(#mask0_180_153)">
<path d="M15.967 14.905C18.066 16.332 20.901 15.754 22.3 13.614C23.7 11.474 23.132 8.58203 21.033 7.15503C18.934 5.72803 16.099 6.30603 14.7 8.44603C13.3 10.586 13.868 13.478 15.967 14.905Z" fill="#F0F0F0"/>
<path fill-rule="evenodd" clip-rule="evenodd" d="M20.7602 7.57414C18.8922 6.30414 16.3632 6.81614 15.1132 8.72714C13.8632 10.6391 14.3732 13.2171 16.2412 14.4871C18.1082 15.7561 20.6372 15.2441 21.8872 13.3331C23.1372 11.4211 22.6272 8.84314 20.7592 7.57314L20.7602 7.57414ZM14.2862 8.16514C15.8342 5.79714 18.9762 5.15314 21.3062 6.73714C23.6362 8.32114 24.2622 11.5271 22.7142 13.8951C21.1662 16.2631 18.0242 16.9081 15.6942 15.3231C13.3642 13.7391 12.7382 10.5331 14.2862 8.16514Z" fill="white"/>
<path d="M14.7 8.44612C14.3631 8.96254 14.2411 9.59009 14.36 10.1951C14.48 10.8001 14.83 11.3331 15.333 11.6751C15.837 12.0181 16.454 12.1431 17.048 12.0221C17.3436 11.961 17.6242 11.8419 17.8734 11.6716C18.1226 11.5013 18.3356 11.2833 18.5 11.0301C18.836 10.5161 19.358 10.1601 19.952 10.0381C20.2465 9.97838 20.5501 9.97831 20.8446 10.0379C21.1392 10.0975 21.4188 10.2156 21.667 10.3851C22.17 10.7271 22.52 11.2601 22.639 11.8651C22.7582 12.47 22.6366 13.0976 22.3 13.6141C21.9711 14.1203 21.5451 14.5561 21.0466 14.8965C20.5482 15.2369 19.9871 15.475 19.396 15.5971C18.807 15.7169 18.2 15.7174 17.6109 15.5986C17.0218 15.4797 16.4624 15.2439 15.966 14.9051C14.9535 14.212 14.2551 13.1478 14.022 11.9431C13.7839 10.7336 14.0271 9.47898 14.7 8.44612ZM11.533 3.49512L12.166 3.92512L9.633 7.80012L9 7.37012L11.533 3.49512ZM12.483 4.14112L13.116 4.57112L10.583 8.44612L9.95 8.01612L12.483 4.14112ZM13.433 4.78712L14.066 5.21712L11.533 9.09212L10.9 8.66212L13.433 4.78712ZM25.467 12.9681L26.1 13.3981L24.939 15.1741L24.306 14.7441L25.467 12.9681ZM24.095 15.0671L24.728 15.4971L23.567 17.2731L22.934 16.8431L24.095 15.0671ZM26.417 13.6141L27.05 14.0441L25.889 15.8201L25.256 15.3901L26.417 13.6141ZM25.045 15.7131L25.678 16.1431L24.517 17.9191L23.884 17.4891L25.045 15.7131ZM27.367 14.2601L28 14.6901L26.84 16.4661L26.206 16.0361L27.366 14.2601H27.367ZM25.995 16.3581L26.628 16.7891L25.468 18.5651L24.834 18.1351L25.994 16.3581H25.995ZM9 14.6901L9.633 14.2601L12.166 18.1341L11.533 18.5641L9 14.6901ZM9.95 14.0441L10.583 13.6141L11.744 15.3901L11.111 15.8201L9.95 14.0441ZM11.322 16.1441L11.955 15.7131L13.116 17.4881L12.483 17.9191L11.322 16.1441ZM10.9 13.3991L11.533 12.9681L14.066 16.8431L13.433 17.2731L10.9 13.3991ZM22.934 5.21712L23.567 4.78712L24.727 6.56312L24.095 6.99312L22.934 5.21712ZM24.306 7.31712L24.939 6.88612L26.1 8.66012L25.467 9.09112L24.306 7.31512V7.31712ZM23.884 4.57212L24.517 4.14112L27.05 8.01612L26.417 8.44612L23.884 4.57212ZM24.834 3.92612L25.467 3.49612L26.628 5.27112L25.995 5.70112L24.834 3.92612ZM26.206 6.02412L26.839 5.59412L28 7.37012L27.367 7.80012L26.206 6.02412Z" fill="white"/>
</g>
<path d="M0.5 0.530029H36.5V21.53H0.5V0.530029Z" stroke="white"/>
</g>
</g>
</g>
<defs>
<clipPath id="clip0_180_153">
<rect width="37" height="22" fill="white" transform="translate(0 0.0300293)"/>
</clipPath>
<clipPath id="clip1_180_153">
<rect width="37" height="22" fill="white" transform="translate(0 0.0300293)"/>
</clipPath>
<clipPath id="clip2_180_153">
<rect width="37" height="22" fill="white" transform="translate(0 0.0300293)"/>
</clipPath>
</defs>
</svg>
