<svg width="37" height="23" viewBox="0 0 37 23" fill="none" xmlns="http://www.w3.org/2000/svg">
<g clip-path="url(#clip0_180_116)">
<g clip-path="url(#clip1_180_116)">
<g clip-path="url(#clip2_180_116)">
<path d="M36 0.0300293H0V22.03H37V0.0300293H36ZM21.2 1.03003H30.4L21.2 7.03003V1.03003ZM15.6 1.03003V7.33003L6 1.03003H15.6ZM1 1.03003H4.2L15.1 8.13003H10.1L1 2.23003V1.03003ZM1 3.33003L8.3 8.13003H1V3.33003ZM1 13.43H11.6L1 20.33V13.43ZM15.6 21.03H8.5L15.6 16.33V21.03ZM15.6 15.13L6.7 21.03H1.7L13.3 13.43H15.6V15.13ZM21.2 21.03V16.63L27.9 21.03H21.2ZM29.7 21.03L21.2 15.43V13.33H23L34.7 21.03H29.7ZM36 20.73L24.8 13.43H36V20.73ZM36 9.13003V12.33H20.2V21.03H16.7V12.23H1V9.03003H16.7V1.03003H20.2V9.03003H36V9.13003ZM36 8.13003H28.1L36 3.03003V8.13003ZM36 1.83003L26.3 8.23003H21.3L32.2 1.03003H36V1.83003Z" fill="white"/>
</g>
</g>
</g>
<defs>
<clipPath id="clip0_180_116">
<rect width="37" height="22" fill="white" transform="translate(0 0.0300293)"/>
</clipPath>
<clipPath id="clip1_180_116">
<rect width="37" height="22" fill="white" transform="translate(0 0.0300293)"/>
</clipPath>
<clipPath id="clip2_180_116">
<rect width="37" height="22" fill="white" transform="translate(0 0.0300293)"/>
</clipPath>
</defs>
</svg>
