<svg width="37" height="23" viewBox="0 0 37 23" fill="none" xmlns="http://www.w3.org/2000/svg">
<g clip-path="url(#clip0_180_68)">
<g clip-path="url(#clip1_180_68)">
<g clip-path="url(#clip2_180_68)">
<path d="M0 0.0300293H37V1.03003H0V0.0300293ZM0 21.03H37V22.03H0V21.03ZM0 3.03003H37V4.03003H0V3.03003ZM0 6.03003H37V7.03003H0V6.03003ZM0 9.03003H37V10.03H0V9.03003ZM0 12.03H37V13.03H0V12.03ZM0 15.03H37V16.03H0V15.03ZM0 18.03H37V19.03H0V18.03Z" fill="white"/>
<path d="M0 0.0300293H19V13.03H0V0.0300293ZM0 13.03H1V22.03H0V13.03ZM36 0.0300293H37V22.03H36V0.0300293Z" fill="white"/>
</g>
</g>
</g>
<defs>
<clipPath id="clip0_180_68">
<rect width="37" height="22" fill="white" transform="translate(0 0.0300293)"/>
</clipPath>
<clipPath id="clip1_180_68">
<rect width="37" height="22" fill="white" transform="translate(0 0.0300293)"/>
</clipPath>
<clipPath id="clip2_180_68">
<rect width="37" height="22" fill="white" transform="translate(0 0.0300293)"/>
</clipPath>
</defs>
</svg>
