<svg width="37" height="23" viewBox="0 0 37 23" fill="none" xmlns="http://www.w3.org/2000/svg">
<g clip-path="url(#clip0_180_128)">
<g clip-path="url(#clip1_180_128)">
<g clip-path="url(#clip2_180_128)">
<path d="M0 0.0300293V22.03H37V0.0300293H0ZM36 21.03H1V1.03003H36V21.03Z" fill="#CCCCCC"/>
<path d="M17.7998 4.83013L18.4998 4.33013L19.1998 4.83013L18.8998 3.93013L19.6998 3.43013H18.7998L18.4998 2.63013L18.1998 3.43013H17.2998L18.0998 3.93013L17.7998 4.83013Z" fill="#CCCCCC"/>
<path d="M14.1002 5.83013L14.8002 5.23013L15.6002 5.83013L15.3002 4.93013L16.0002 4.43013H15.1002L14.8002 3.63013L14.6002 4.43013H13.7002L14.4002 4.93013L14.1002 5.83013Z" fill="#CCCCCC"/>
<path d="M12.2 6.23022L11.9 7.13022H11L11.7 7.63022L11.5 8.43022L12.2 7.93022L12.9 8.43022L12.6 7.63022L13.3 7.13022H12.4L12.2 6.23022Z" fill="#CCCCCC"/>
<path d="M11.2 11.6302L11.9 12.1302L11.6 11.3302L12.3 10.7302H11.5L11.2 9.93018L10.9 10.7302H10L10.7 11.3302L10.5 12.1302L11.2 11.6302Z" fill="#CCCCCC"/>
<path d="M12.4 14.4301L12.2 13.6301L11.9 14.4301H11L11.7 14.9301L11.5 15.8301L12.2 15.2301L12.9 15.8301L12.6 14.9301L13.3 14.4301H12.4Z" fill="#CCCCCC"/>
<path d="M15.1002 17.1301L14.8002 16.3301L14.6002 17.1301H13.7002L14.4002 17.6301L14.1002 18.4301L14.8002 17.9301L15.6002 18.4301L15.3002 17.6301L16.0002 17.1301H15.1002Z" fill="#CCCCCC"/>
<path d="M18.7998 18.1302L18.4998 17.2302L18.1998 18.1302H17.2998L18.0998 18.6302L17.7998 19.4302L18.4998 18.9302L19.1998 19.4302L18.8998 18.6302L19.6998 18.1302H18.7998Z" fill="#CCCCCC"/>
<path d="M22.4 17.1301L22.2 16.3301L21.9 17.1301H21L21.7 17.6301L21.5 18.4301L22.2 17.9301L22.9 18.4301L22.6 17.6301L23.3 17.1301H22.4Z" fill="#CCCCCC"/>
<path d="M25.1002 14.4301L24.8002 13.6301L24.6002 14.4301H23.7002L24.4002 14.9301L24.1002 15.8301L24.8002 15.2301L25.6002 15.8301L25.3002 14.9301L26.0002 14.4301H25.1002Z" fill="#CCCCCC"/>
<path d="M27.0002 10.7302H26.1002L25.8002 9.93018L25.5002 10.7302H24.7002L25.4002 11.3302L25.1002 12.1302L25.8002 11.6302L26.5002 12.1302L26.3002 11.3302L27.0002 10.7302Z" fill="#CCCCCC"/>
<path d="M24.1002 8.43022L24.8002 7.93022L25.6002 8.43022L25.3002 7.63022L26.0002 7.13022H25.1002L24.8002 6.23022L24.6002 7.13022H23.7002L24.4002 7.63022L24.1002 8.43022Z" fill="#CCCCCC"/>
<path d="M22.2 3.63013L21.9 4.43013H21L21.7 4.93013L21.5 5.83013L22.2 5.23013L22.9 5.83013L22.6 4.93013L23.3 4.43013H22.4L22.2 3.63013Z" fill="#CCCCCC"/>
</g>
</g>
</g>
<defs>
<clipPath id="clip0_180_128">
<rect width="37" height="22" fill="white" transform="translate(0 0.0300293)"/>
</clipPath>
<clipPath id="clip1_180_128">
<rect width="37" height="22" fill="white" transform="translate(0 0.0300293)"/>
</clipPath>
<clipPath id="clip2_180_128">
<rect width="37" height="22" fill="white" transform="translate(0 0.0300293)"/>
</clipPath>
</defs>
</svg>
