<svg width="37" height="23" viewBox="0 0 37 23" fill="none" xmlns="http://www.w3.org/2000/svg">
<g clip-path="url(#clip0_180_148)">
<g clip-path="url(#clip1_180_148)">
<g clip-path="url(#clip2_180_148)">
<path d="M18.4 18.83C20.3626 18.83 22.2448 18.0504 23.6326 16.6626C25.0204 15.2748 25.8 13.3926 25.8 11.43C25.8 9.46743 25.0204 7.58521 23.6326 6.19744C22.2448 4.80967 20.3626 4.03003 18.4 4.03003C16.4374 4.03003 14.5552 4.80967 13.1674 6.19744C11.7796 7.58521 11 9.46743 11 11.43C11 13.3926 11.7796 15.2748 13.1674 16.6626C14.5552 18.0504 16.4374 18.83 18.4 18.83Z" fill="white"/>
<path d="M0.5 0.530029H36.5V21.53H0.5V0.530029Z" stroke="white"/>
</g>
</g>
</g>
<defs>
<clipPath id="clip0_180_148">
<rect width="37" height="22" fill="white" transform="translate(0 0.0300293)"/>
</clipPath>
<clipPath id="clip1_180_148">
<rect width="37" height="22" fill="white" transform="translate(0 0.0300293)"/>
</clipPath>
<clipPath id="clip2_180_148">
<rect width="37" height="22" fill="white" transform="translate(0 0.0300293)"/>
</clipPath>
</defs>
</svg>
