<svg width="37" height="23" viewBox="0 0 37 23" fill="none" xmlns="http://www.w3.org/2000/svg">
<g clip-path="url(#clip0_180_78)">
<g clip-path="url(#clip1_180_78)">
<g clip-path="url(#clip2_180_78)">
<path d="M27.48 3.18003L28.05 5.03003H30L28.46 6.19003L29 8.03003L27.48 6.86003L26 7.96003L26.56 6.19003L25 5.03003H26.89L27.48 3.18003ZM27.48 14.18L28.05 16.03H30L28.47 17.17L29 19.03L27.46 17.89L26 18.97L26.56 17.2L25 16.03H26.89L27.48 14.18ZM23.48 7.18003L24.05 9.03003H26L24.47 10.17L25 12.03L23.47 10.89L22 12.03L22.57 10.26L21 9.03003H22.89L23.48 7.18003ZM31.48 7.18003L32.05 9.03003H34L32.46 10.17L33 12.03L31.46 10.89L30 12.03L30.56 10.26L29 9.03003H30.89L31.48 7.18003ZM0 0.0300293H37V1.03003H0V0.0300293ZM0 21.03H37V22.03H0V21.03Z" fill="white"/>
<path d="M0 0.0300293H1V22.03H0V0.0300293ZM36 0.0300293H37V22.03H36V0.0300293Z" fill="white"/>
<path d="M0 12.03H19V13.03H0V12.03Z" fill="white"/>
<path d="M18.0498 0.0800781H19.0498V13.0801H18.0498V0.0800781Z" fill="white"/>
<path d="M0.0498047 12.08H19.0498V13.08H0.0498047V12.08ZM7.4498 0.280029V4.48003H0.149805V5.28003H8.2498V0.280029H7.4498Z" fill="white"/>
<path d="M8.3498 5.28008H0.0498047V4.28008H7.3498V0.0800781H8.4498V5.28008H8.3498ZM0.249805 5.08008H8.1498V0.380078H7.5498V4.58008H0.249805V5.08008ZM10.3498 0.280078V5.28008H18.8498V4.38008H11.2498V0.280078H10.3498Z" fill="white"/>
<path d="M19.0001 5.28008H10.3001V0.0800781H11.4001V4.28008H19.0001V5.28008ZM10.6001 5.08008H18.8001V4.48008H11.1001V0.380078H10.5001V5.08008H10.6001ZM0.350098 7.38008V8.18008H7.4501V12.7801H8.2501V7.38008H0.350098Z" fill="white"/>
<path d="M8.35 13.03H7.35V8.38003H0.25V7.28003H8.45L8.35 13.03ZM7.65 12.73H8.15V7.58003H0.45V8.08003H7.55L7.65 12.68V12.73ZM10.35 7.38003V12.78H11.15V8.18003H18.65V7.38003H10.35Z" fill="white"/>
<path d="M11.2499 13.03H10.2499V7.27998H18.8499V8.37998H11.3499L11.2499 12.98V13.03ZM10.5499 12.73H11.0499V8.07998H18.5499V7.57998H10.4499V12.68L10.5499 12.73ZM0.649902 1.47998L0.149902 2.17998L4.2499 5.07998L4.7499 4.37998L0.649902 1.47998Z" fill="white"/>
<path d="M4.25 5.28003L0 2.28003L0.6 1.38003L0.7 1.48003L4.9 4.38003L4.25 5.28003ZM0.35 2.18003L4.25 4.88003L4.55 4.38003L0.65 1.68003L0.35 2.18003ZM3.25 0.280029L2.75 0.880029L7.35 4.38003L7.85 3.68003L3.25 0.280029Z" fill="white"/>
<path d="M7.4499 4.58008L2.6499 0.880078L3.2499 0.0800781L8.0499 3.78008L7.4499 4.58008ZM2.9999 0.880078L7.3999 4.28008L7.6999 3.78008L3.2499 0.380078L2.9999 0.880078ZM18.2499 1.38008L14.0499 4.38008L14.4499 5.08008L18.6499 2.08008L18.2499 1.38008Z" fill="white"/>
<path d="M14.45 5.27993L13.85 4.37993L13.95 4.27993L18.25 1.17993L18.85 2.07993L14.45 5.27993ZM14.15 4.37993L14.45 4.87993L18.45 2.07993L18.15 1.57993L14.15 4.37993ZM15.75 0.179932L10.75 3.87993L11.25 4.57993L16.25 0.879932L15.75 0.179932Z" fill="white"/>
<path d="M11.1499 4.68003L10.5499 3.78003L15.7499 0.0300293L16.3499 0.930029L11.1499 4.68003ZM10.8499 3.88003L11.1499 4.38003L16.0499 0.780029L15.7499 0.280029L10.8499 3.88003ZM4.1499 7.48003L0.149902 10.28L0.649902 10.98L4.6499 8.18003L4.1499 7.48003Z" fill="white"/>
<path d="M0.649805 11.18L0.0498047 10.28L4.2498 7.28003L4.8498 8.18003L4.6498 8.28003L0.649805 11.18ZM0.349805 10.38L0.649805 10.88L4.4498 8.18003L4.0498 7.68003L0.349805 10.38ZM7.4498 8.08003L2.0498 12.08L2.5498 12.78L7.9498 8.78003L7.4498 8.08003Z" fill="white"/>
<path d="M2.4501 13.03L1.8501 12.13L7.4501 7.92998L8.0501 8.82998L7.9501 8.92998L2.4501 13.03ZM2.1501 12.23L2.4501 12.73L7.6501 8.82998L7.3501 8.32998L2.1501 12.23ZM14.2501 7.47998L13.7501 8.17998L18.3501 11.38L18.8501 10.68L14.2501 7.47998Z" fill="white"/>
<path d="M18.3499 11.58L18.2499 11.48L13.5499 8.18003L14.1499 7.28003L14.2499 7.38003L18.9499 10.68L18.3499 11.58ZM13.9999 8.08003L18.3999 11.18L18.6999 10.68L14.2999 7.58003L13.9999 8.08003ZM11.1499 8.08003L10.6499 8.78003L15.8499 12.78L16.3499 12.08L11.1499 8.08003Z" fill="white"/>
<path d="M16.0001 12.8801L10.6001 8.78013L11.3001 7.88013L11.4001 7.98013L16.7001 12.0801L16.0001 12.8801ZM10.9001 8.68013L15.9001 12.4801L16.2001 11.9801L11.2001 8.18013L10.9001 8.68013Z" fill="white"/>
</g>
</g>
</g>
<defs>
<clipPath id="clip0_180_78">
<rect width="37" height="22" fill="white" transform="translate(0 0.0300293)"/>
</clipPath>
<clipPath id="clip1_180_78">
<rect width="37" height="22" fill="white" transform="translate(0 0.0300293)"/>
</clipPath>
<clipPath id="clip2_180_78">
<rect width="37" height="22" fill="white" transform="translate(0 0.0300293)"/>
</clipPath>
</defs>
</svg>
